<svg width="32" height="33" viewBox="0 0 32 33" fill="none" xmlns="http://www.w3.org/2000/svg">
<path d="M7.78113 5.95996C8.44112 5.95996 9.62512 6.16396 9.62512 7.78896C9.62512 9.41396 8.45312 10.039 7.78113 10.039C7.10913 10.039 6.07812 9.40096 6.07812 7.78896C6.07812 6.17596 7.21112 5.95996 7.78113 5.95996ZM4.15613 7.99996C4.81613 7.99996 6.00012 8.20296 6.00012 9.82796C6.00012 11.453 4.82812 12.078 4.15613 12.078C3.48413 12.078 2.45312 11.441 2.45312 9.82796C2.45312 8.21596 3.58613 7.99996 4.15613 7.99996ZM14.0001 7.78896C14.0001 6.16396 12.8161 5.96096 12.1561 5.96096C11.5861 5.96096 10.4531 6.17596 10.4531 7.78896C10.4531 9.40096 11.4841 10.039 12.1561 10.039C12.8281 10.039 14.0001 9.41396 14.0001 7.78896ZM15.7031 7.99996C16.3631 7.99996 17.5471 8.20296 17.5471 9.82796C17.5471 11.453 16.3751 12.078 15.7031 12.078C15.0311 12.078 14.0001 11.441 14.0001 9.82796C14.0001 8.21596 15.1331 7.99996 15.7031 7.99996ZM14.9841 15.969C14.9841 13.047 13.0941 10.516 10.0001 10.516C6.90613 10.516 5.04712 12.984 5.04712 15.969C5.04712 18.453 8.00812 18.453 9.99312 18.453H10.0001C12.2031 18.453 14.9841 18.375 14.9841 15.969ZM16.1561 20.047C16.8161 20.047 18.0001 20.25 18.0001 21.875C18.0001 23.5 16.8281 24.125 16.1561 24.125C15.4841 24.125 14.4531 23.487 14.4531 21.875C14.4531 20.262 15.5861 20.047 16.1561 20.047ZM21.6251 19.836C21.6251 18.211 20.4411 18.008 19.7811 18.008C19.2111 18.008 18.0781 18.223 18.0781 19.836C18.0781 21.448 19.1091 22.086 19.7811 22.086C20.4531 22.086 21.6251 21.461 21.6251 19.836ZM24.1561 18.008C24.8161 18.008 26.0001 18.211 26.0001 19.836C26.0001 21.461 24.8281 22.086 24.1561 22.086C23.4841 22.086 22.4531 21.448 22.4531 19.836C22.4531 18.223 23.5861 18.008 24.1561 18.008ZM29.5471 21.875C29.5471 20.25 28.3631 20.047 27.7031 20.047C27.1331 20.047 26.0001 20.262 26.0001 21.875C26.0001 23.487 27.0311 24.125 27.7031 24.125C28.3751 24.125 29.5471 23.5 29.5471 21.875ZM22.0001 22.563C25.0941 22.563 26.9841 25.093 26.9841 28.016C26.9841 30.422 24.2041 30.5 22.0001 30.5H21.9921C20.0081 30.5 17.0471 30.5 17.0471 28.016C17.0471 25.031 18.9071 22.563 22.0001 22.563Z" fill="#101828"/>
</svg>
